<?xml version="1.0" encoding="utf-8"?>
<!-- Generator: Adobe Illustrator 23.0.0, SVG Export Plug-In . SVG Version: 6.00 Build 0)  -->
<svg version="1.1" id="Isolation_Mode" xmlns="http://www.w3.org/2000/svg" xmlns:xlink="http://www.w3.org/1999/xlink" x="0px"
	 y="0px" viewBox="0 0 268.56 248.05" style="enable-background:new 0 0 268.56 248.05;" xml:space="preserve">
<style type="text/css">
	.st0{fill:#FF00B1;}
</style>
<circle class="st0" cx="186.4" cy="173.14" r="63.14"/>
<path class="st0" d="M233.18,19.57c-3.64-3.25-7.98-5.36-12.58-6.55c-3.41-1.01-7.01-1.57-10.75-1.57c-6.42,0-12.46,1.61-17.75,4.44
	c-1.79,0.86-3.42,1.83-4.81,2.88c-11.96,9.06-15.11,20.71-16.06,33.24c-0.94,12.53-12.61,26.61-20.33,30.61
	c-7.72,3.99-39.6,11.66-52.57-23.12c-3.61-13.67,4.54-15.96-11.53-36.05C70.72,3.38,41.55,11.77,31.31,24.85s-14.35,34.76,0.9,50.07
	c15.25,15.31,20.98,7.88,32.96,12.01c11.98,4.13,35.79,15.14,31.11,41.96c-4.1,23.54-21.26,30.99-33.98,32.16
	c-0.82-0.05-1.64-0.09-2.47-0.09c-1.54,0-3.05,0.1-4.54,0.28c-2.21,0.15-4.39,0.64-6.47,1.36c-15.43,4.71-26.65,19.05-26.65,36.02
	c0,15.78,9.71,29.28,23.48,34.89c4.63,2,9.27,2.82,13.75,2.76c0.15,0,0.29,0.01,0.44,0.01c20.8,0,37.66-16.86,37.66-37.66
	c0-1.32-0.07-2.62-0.2-3.9c0.73-6.06,1.43-13.13,2.51-21.57c3.57-27.98,18.83-42.6,32.17-55.94c12.76-12.76,41.66-30.2,73.96-30.63
	c1.29,0.13,2.61,0.21,3.93,0.21c2.76,0,5.46-0.31,8.05-0.87c3.59-0.66,6.29-1.71,8.41-2.91c12.55-6.11,21.2-18.98,21.2-33.87
	C247.5,37.14,241.9,26.47,233.18,19.57z"/>
</svg>
